<svg width="512" height="512" viewBox="0 0 512 512" fill="none" xmlns="http://www.w3.org/2000/svg">
<path d="M254.946 158.08L207.233 301.607H170.979L138.893 204.419L105.765 301.607H69.72L21.7988 158.08H56.8021L89.7218 258.959L124.1 158.08H155.353L188.689 259.779L222.651 158.08H254.946Z" fill="#141517"/>
<path d="M308.367 189.656C325.73 189.656 339.064 193.757 348.371 201.958C357.677 210.023 362.33 222.257 362.33 238.66V301.607H331.911V287.869C325.799 298.121 314.409 303.247 297.741 303.247C289.129 303.247 281.628 301.812 275.239 298.941C268.988 296.071 264.196 292.107 260.862 287.049C257.529 281.991 255.862 276.25 255.862 269.826C255.862 259.574 259.751 251.509 267.53 245.631C275.447 239.754 287.601 236.815 303.991 236.815H329.827C329.827 229.843 327.674 224.512 323.368 220.822C319.062 216.994 312.603 215.081 303.991 215.081C298.019 215.081 292.115 216.037 286.282 217.951C280.587 219.728 275.725 222.189 271.697 225.333L260.029 202.983C266.141 198.746 273.433 195.465 281.906 193.142C290.518 190.818 299.338 189.656 308.367 189.656ZM305.867 281.718C311.423 281.718 316.354 280.488 320.66 278.027C324.966 275.43 328.022 271.671 329.827 266.75V255.473H307.534C294.199 255.473 287.532 259.779 287.532 268.391C287.532 272.491 289.129 275.772 292.324 278.232C295.657 280.556 300.172 281.718 305.867 281.718Z" fill="#141517"/>
<path d="M500.973 191.296L450.343 308.373C445.204 321.085 438.814 330.039 431.175 335.233C423.674 340.427 414.576 343.024 403.88 343.024C398.047 343.024 392.282 342.136 386.587 340.359C380.892 338.582 376.239 336.121 372.627 332.977L384.504 310.218C387.004 312.405 389.851 314.114 393.046 315.344C396.38 316.574 399.644 317.19 402.839 317.19C407.283 317.19 410.895 316.096 413.673 313.909C416.451 311.859 418.951 308.373 421.174 303.452L421.59 302.427L373.044 191.296H406.589L438.05 266.135L469.72 191.296H500.973Z" fill="#141517"/>
<path d="M501.131 191.288L450.502 308.365C445.362 321.077 438.973 330.03 431.333 335.225C423.833 340.419 414.734 343.016 404.039 343.016C398.205 343.016 392.441 342.128 386.746 340.351C381.051 338.574 376.398 336.113 372.786 332.969L384.662 310.21C387.162 312.397 390.01 314.106 393.205 315.336C396.538 316.566 399.803 317.181 402.997 317.181C407.442 317.181 411.054 316.088 413.832 313.901C416.61 311.85 419.11 308.365 421.332 303.444L421.749 302.419L438.209 266.127L469.879 191.288H501.131Z" fill="#FE7865"/>
</svg>
