<svg width="512" height="512" viewBox="0 0 512 512" fill="none" xmlns="http://www.w3.org/2000/svg">
<rect width="512" height="512" fill="white"/>
<path d="M249.564 176.264L201.926 319.566H165.729L133.693 222.53L100.616 319.566H64.6276L16.7812 176.264H51.7299L84.5983 276.985L118.923 176.264H150.127L183.411 277.804L217.32 176.264H249.564Z" fill="#141517"/>
<path d="M302.902 207.79C320.238 207.79 333.552 211.885 342.844 220.073C352.135 228.126 356.781 240.34 356.781 256.718V319.566H326.409V305.85C320.307 316.086 308.935 321.204 292.293 321.204C283.694 321.204 276.205 319.771 269.826 316.905C263.585 314.039 258.8 310.081 255.472 305.031C252.143 299.982 250.479 294.25 250.479 287.835C250.479 277.599 254.362 269.547 262.129 263.678C270.034 257.81 282.169 254.875 298.534 254.875H324.329C324.329 247.915 322.179 242.592 317.88 238.907C313.581 235.086 307.132 233.175 298.534 233.175C292.57 233.175 286.676 234.131 280.851 236.041C275.165 237.816 270.311 240.272 266.289 243.411L254.64 221.097C260.742 216.866 268.023 213.591 276.483 211.27C285.081 208.95 293.888 207.79 302.902 207.79ZM300.406 299.709C305.953 299.709 310.877 298.48 315.176 296.024C319.475 293.431 322.526 289.677 324.329 284.764V273.505H302.07C288.756 273.505 282.099 277.804 282.099 286.402C282.099 290.496 283.694 293.772 286.884 296.228C290.213 298.549 294.72 299.709 300.406 299.709Z" fill="#141517"/>
<path d="M495.208 209.428L444.657 326.322C439.525 339.015 433.146 347.954 425.518 353.14C418.029 358.326 408.945 360.919 398.267 360.919C392.442 360.919 386.686 360.032 381 358.258C375.314 356.484 370.668 354.027 367.062 350.888L378.92 328.164C381.416 330.348 384.259 332.054 387.449 333.282C390.778 334.511 394.037 335.125 397.227 335.125C401.664 335.125 405.27 334.033 408.044 331.849C410.818 329.802 413.314 326.322 415.533 321.409L415.949 320.385L367.479 209.428H400.971L432.383 284.15L464.003 209.428H495.208Z" fill="#141517"/>
<path d="M495.356 209.42L444.805 326.314C439.674 339.007 433.294 347.946 425.667 353.132C418.178 358.318 409.094 360.911 398.415 360.911C392.59 360.911 386.835 360.024 381.149 358.25C375.463 356.476 370.817 354.019 367.211 350.88L379.068 328.156C381.565 330.34 384.408 332.046 387.598 333.274C390.926 334.503 394.185 335.117 397.375 335.117C401.813 335.117 405.419 334.025 408.192 331.841C410.966 329.794 413.462 326.314 415.681 321.401L416.097 320.377L432.532 284.142L464.152 209.42H495.356Z" fill="#FE7865"/>
</svg>
