<svg xmlns="http://www.w3.org/2000/svg" xmlns:xlink="http://www.w3.org/1999/xlink"><defs><clipPath id="a"><path fill="#fff" transform="rotate(-90 6 6)" d="M0 0h12v7.4H0z"/></clipPath><clipPath id="a"><path fill="#fff" transform="translate(.51)" d="M0 0h12v7.4H0z"/></clipPath></defs><symbol id="arrow"><g clip-path="url(#a)"><path fill-rule="evenodd" clip-rule="evenodd" d="M0 1.4 4.6 6 0 10.6 1.4 12l6-6-6-6L0 1.4Z" fill="#2C2E3F" fill-opacity=".5"/></g></symbol><symbol id="button-arrow"><path d="M8 1v14M15 8l-7 7-7-7" stroke="#fff" stroke-linecap="round" stroke-linejoin="round"/></symbol><symbol id="mail"><path d="M24.227 0H1.773C.768 0 0 .765 0 1.765v16.47C0 19.235.768 20 1.773 20h22.454C25.232 20 26 19.235 26 18.235V1.765C26 .765 25.232 0 24.227 0Zm0 17-4.668-4.647a.86.86 0 0 0-1.24 0 .85.85 0 0 0 0 1.235l4.667 4.647H3.014l4.668-4.647a.85.85 0 0 0 0-1.235.86.86 0 0 0-1.241 0L1.773 17V5.706l10.636 8a.955.955 0 0 0 .532.176.955.955 0 0 0 .532-.176l10.754-8V17Zm0-15.235V3.47l-11.286 8.352L1.773 3.471V1.765h22.454Z" fill="#D7D9DF"/></symbol><symbol id="phone"><path d="M7.397 8.624c-.085-1.198.18-2.378.884-3.327.61-.86 1.405-1.33 2.362-1.605.806-.24 1.335.054 1.567.95.332 1.34.806 2.68.979 4.092.054.62-.348 1.5-.783 1.952-1.09 1.073-.863 1.854-.036 3.478.257.524.665 1.43 1.459 2.628.827 1.207 1.265 1.855 2.328 1.305 1.18-.594 2.041-.212 2.932.747.604.693 1.269 1.288 1.873 1.98.872 1.03.833 1.74.15 2.467-1.228 1.34-3.258 1.783-4.768.886-.833-.489-1.664-1.128-2.325-1.874-2.914-3.32-5.016-7.182-6.281-11.54a10.989 10.989 0 0 1-.341-2.139Z"/></symbol><symbol id="tabs-arrow"><g clip-path="url(#a)"><path fill-rule="evenodd" clip-rule="evenodd" d="m1.91 7.4 4.6-4.6 4.6 4.6 1.4-1.4-6-6-6 6 1.4 1.4Z" fill="#FE7865"/></g></symbol><symbol id="tick"><path clip-rule="evenodd" d="M17.614 5.21a1 1 0 0 1 .175 1.404l-7.775 10a1 1 0 0 1-1.476.112l-4.226-4a1 1 0 1 1 1.375-1.452l3.425 3.242 7.098-9.13a1 1 0 0 1 1.404-.175Z"/></symbol></svg>